<svg xmlns="http://www.w3.org/2000/svg" viewBox="0 0 1200 675" width="1200" height="675" role="img" aria-label="Abstract illustration">
  <defs>
    <radialGradient id="g" cx="0.61" cy="0.25" r="1">
      <stop offset="0" stop-color="#141B24"/>
      <stop offset="1" stop-color="#0D1117"/>
    </radialGradient>
    <filter id="n"><feTurbulence type="fractalNoise" baseFrequency=".9" numOctaves="3"/><feColorMatrix type="saturate" values="0"/></filter>
    <linearGradient id="v" x1="0" y1="0" x2="0" y2="1">
      <stop offset="0" stop-color="#0D1117" stop-opacity=".00"/>
      <stop offset="1" stop-color="#0D1117" stop-opacity=".55"/>
    </linearGradient>
  </defs>
  <rect width="1200" height="675" fill="url(#g)"/>
  <g>
    <circle cx="90" cy="528" r="8.5" fill="#126447" opacity="0.45"/>
    <circle cx="113" cy="215" r="8.4" fill="#126447" opacity="0.46"/>
    <circle cx="135" cy="524" r="8.3" fill="#126447" opacity="0.47"/>
    <circle cx="158" cy="405" r="8.2" fill="#126447" opacity="0.48"/>
    <circle cx="181" cy="534" r="8.1" fill="#126447" opacity="0.49"/>
    <circle cx="203" cy="367" r="8.1" fill="#126447" opacity="0.49"/>
    <circle cx="226" cy="499" r="8.0" fill="#126447" opacity="0.50"/>
    <circle cx="249" cy="478" r="7.9" fill="#284791" opacity="0.51"/>
    <circle cx="271" cy="333" r="7.8" fill="#284791" opacity="0.52"/>
    <circle cx="294" cy="292" r="7.7" fill="#284791" opacity="0.53"/>
    <circle cx="317" cy="405" r="7.6" fill="#284791" opacity="0.54"/>
    <circle cx="339" cy="349" r="7.5" fill="#284791" opacity="0.55"/>
    <circle cx="362" cy="318" r="7.4" fill="#284791" opacity="0.56"/>
    <circle cx="385" cy="295" r="7.3" fill="#453B92" opacity="0.57"/>
    <circle cx="407" cy="376" r="7.3" fill="#453B92" opacity="0.57"/>
    <circle cx="430" cy="360" r="7.2" fill="#453B92" opacity="0.58"/>
    <circle cx="453" cy="420" r="7.1" fill="#453B92" opacity="0.59"/>
    <circle cx="475" cy="411" r="7.0" fill="#453B92" opacity="0.60"/>
    <circle cx="498" cy="389" r="6.9" fill="#453B92" opacity="0.61"/>
    <circle cx="521" cy="352" r="6.8" fill="#453B92" opacity="0.62"/>
    <circle cx="543" cy="355" r="6.7" fill="#852764" opacity="0.63"/>
    <circle cx="566" cy="403" r="6.6" fill="#852764" opacity="0.64"/>
    <circle cx="589" cy="407" r="6.5" fill="#852764" opacity="0.65"/>
    <circle cx="611" cy="380" r="6.5" fill="#852764" opacity="0.65"/>
    <circle cx="634" cy="425" r="6.4" fill="#852764" opacity="0.66"/>
    <circle cx="657" cy="414" r="6.3" fill="#852764" opacity="0.67"/>
    <circle cx="679" cy="414" r="6.2" fill="#0E5D6F" opacity="0.68"/>
    <circle cx="702" cy="427" r="6.1" fill="#0E5D6F" opacity="0.69"/>
    <circle cx="725" cy="406" r="6.0" fill="#0E5D6F" opacity="0.70"/>
    <circle cx="747" cy="407" r="5.9" fill="#0E5D6F" opacity="0.71"/>
    <circle cx="770" cy="407" r="5.8" fill="#0E5D6F" opacity="0.72"/>
    <circle cx="793" cy="402" r="5.7" fill="#0E5D6F" opacity="0.73"/>
    <circle cx="815" cy="391" r="5.7" fill="#0E5D6F" opacity="0.73"/>
    <circle cx="838" cy="397" r="5.6" fill="#662F88" opacity="0.74"/>
    <circle cx="861" cy="410" r="5.5" fill="#662F88" opacity="0.75"/>
    <circle cx="883" cy="397" r="5.4" fill="#662F88" opacity="0.76"/>
    <circle cx="906" cy="396" r="5.3" fill="#662F88" opacity="0.77"/>
    <circle cx="929" cy="405" r="5.2" fill="#662F88" opacity="0.78"/>
    <circle cx="951" cy="407" r="5.1" fill="#662F88" opacity="0.79"/>
    <circle cx="974" cy="401" r="5.0" fill="#15568A" opacity="0.80"/>
    <circle cx="997" cy="404" r="4.9" fill="#15568A" opacity="0.81"/>
    <circle cx="1019" cy="403" r="4.9" fill="#15568A" opacity="0.81"/>
    <circle cx="1042" cy="404" r="4.8" fill="#15568A" opacity="0.82"/>
    <circle cx="1065" cy="404" r="4.7" fill="#15568A" opacity="0.83"/>
    <circle cx="1087" cy="405" r="4.6" fill="#15568A" opacity="0.84"/>
    <circle cx="1110" cy="405" r="4.5" fill="#8D3E27" opacity="0.85"/>
    <path d="M 80 405 L 1120 405" stroke="#34D399" stroke-width="1.2" opacity=".40" stroke-dasharray="2 7"/>
  </g>
  <rect width="1200" height="675" fill="url(#v)"/>
  <rect width="1200" height="675" filter="url(#n)" opacity=".045"/>
</svg>
